<?xml version="1.0" standalone="no"?>
<!DOCTYPE svg PUBLIC "-//W3C//DTD SVG 20010904//EN"
 "http://www.w3.org/TR/2001/REC-SVG-20010904/DTD/svg10.dtd">
<svg version="1.0" xmlns="http://www.w3.org/2000/svg"
 width="256.000000pt" height="256.000000pt" viewBox="0 0 256.000000 256.000000"
 preserveAspectRatio="xMidYMid meet">

<g transform="translate(0.000000,256.000000) scale(0.100000,-0.100000)"
fill="#fff" stroke="none">
<path d="M1070 2535 c-363 -59 -691 -282 -882 -598 l-49 -82 53 -50 c99 -92
241 -174 378 -217 65 -20 95 -23 220 -23 134 1 151 3 218 29 40 15 101 44 135
64 l62 37 260 1 c278 0 393 12 530 55 94 29 138 52 192 102 61 56 83 103 83
175 l0 59 -102 99 c-183 177 -380 284 -625 339 -97 22 -366 28 -473 10z"/>
<path d="M2250 1770 c-153 -55 -336 -175 -566 -371 -180 -153 -279 -198 -479
-219 -233 -24 -727 142 -1054 354 -56 36 -103 66 -105 66 -7 0 -36 -175 -42
-255 -4 -45 -1 -128 6 -190 13 -114 53 -290 72 -312 18 -22 164 -62 284 -78
280 -37 671 -6 1154 90 353 70 519 72 825 9 66 -13 123 -24 127 -24 11 0 49
135 64 230 16 99 18 294 4 395 -16 111 -68 288 -92 308 -28 24 -127 22 -198
-3z"/>
<path d="M660 679 c-218 -21 -353 -54 -402 -98 l-31 -28 45 -59 c102 -132 286
-283 436 -358 549 -275 1233 -111 1595 383 26 35 47 67 47 71 0 11 -116 38
-223 52 -119 15 -250 -4 -390 -57 -52 -19 -101 -35 -109 -35 -8 0 -75 21 -149
46 -212 73 -282 85 -519 89 -113 2 -248 -1 -300 -6z"/>
</g>
</svg>
