<svg xmlns="http://www.w3.org/2000/svg" xmlns:xlink="http://www.w3.org/1999/xlink" width="51.37" height="51.371" viewBox="0 0 51.37 51.371">
  <defs>
    <linearGradient id="linear-gradient" x1="0.217" y1="0.109" x2="0.838" y2="0.864" gradientUnits="objectBoundingBox">
      <stop offset="0" stop-color="#b509dd"/>
      <stop offset="1" stop-color="#f7276c"/>
    </linearGradient>
  </defs>
  <g id="Grupo_15330" data-name="Grupo 15330" transform="translate(-42 -403)">
    <g id="Grupo_15307" data-name="Grupo 15307" transform="translate(-736 -588)">
      <g id="Grupo_35" data-name="Grupo 35" transform="translate(778 991)">
        <path id="Trazado_64" data-name="Trazado 64" d="M-853.879,891.729a25.686,25.686,0,0,1-25.685,25.687,25.686,25.686,0,0,1-25.685-25.687,25.684,25.684,0,0,1,25.685-25.684A25.684,25.684,0,0,1-853.879,891.729Z" transform="translate(905.249 -866.045)" fill="url(#linear-gradient)"/>
      </g>
    </g>
    <g id="Grupo_15297" data-name="Grupo 15297" transform="translate(-490.767 -647.748)">
      <path id="Trazado_8471" data-name="Trazado 8471" d="M574.416,1079.22v11.469a1.223,1.223,0,0,1-1.245,1.179H543.015a1.215,1.215,0,0,1-1.245-1.179V1079.22Z" transform="translate(-0.001 -5.006)" fill="#fff"/>
      <path id="Trazado_7352" data-name="Trazado 7352" d="M573.168,1066.749H543.011a1.213,1.213,0,0,0-1.244,1.176v2.694h32.647v-2.694A1.214,1.214,0,0,0,573.168,1066.749Z" fill="#fff"/>
    </g>
  </g>
</svg>
