<svg id="Grupo_43" data-name="Grupo 43" xmlns="http://www.w3.org/2000/svg" width="38.34" height="38.34" viewBox="0 0 38.34 38.34">
  <g id="Grupo_41" data-name="Grupo 41">
    <path id="Trazado_81" data-name="Trazado 81" d="M797.743,530.371a18.806,18.806,0,1,1,9.387-35.106.806.806,0,0,1-.806,1.4,17.2,17.2,0,1,0,8.613,14.9,17.379,17.379,0,0,0-.152-2.3,17.1,17.1,0,0,0-.992-3.885,17.346,17.346,0,0,0-1.147-2.4.807.807,0,0,1,.7-1.209.812.812,0,0,1,.7.4,18.725,18.725,0,0,1,2.34,6.875,18.819,18.819,0,0,1-18.64,21.318Z" transform="translate(-778.574 -492.394)" fill="#511aea"/>
    <path id="Trazado_82" data-name="Trazado 82" d="M797.607,530.6a19.17,19.17,0,1,1,9.569-35.783,1.168,1.168,0,0,1,.428,1.6,1.2,1.2,0,0,1-1.6.429,16.832,16.832,0,1,0,8.432,14.588,16.986,16.986,0,0,0-.149-2.249,16.7,16.7,0,0,0-.971-3.8,16.94,16.94,0,0,0-1.123-2.348,1.17,1.17,0,0,1,.429-1.6,1.2,1.2,0,0,1,1.6.43,19.07,19.07,0,0,1,2.386,7.008,19.477,19.477,0,0,1,.17,2.56A19.191,19.191,0,0,1,797.607,530.6Zm0-37.612a18.43,18.43,0,1,0,18.279,15.979,18.325,18.325,0,0,0-2.294-6.742.451.451,0,0,0-.6-.162.44.44,0,0,0-.207.269.436.436,0,0,0,.044.335A17.629,17.629,0,0,1,814,505.115a17.436,17.436,0,0,1,1.013,3.968,17.551,17.551,0,1,1-8.639-12.872.454.454,0,0,0,.6-.162.443.443,0,0,0-.161-.6A18.438,18.438,0,0,0,797.607,492.986Z" transform="translate(-778.438 -492.258)" fill="#511aea"/>
  </g>
  <g id="Grupo_42" data-name="Grupo 42" transform="translate(9 12.691)">
    <path id="Trazado_83" data-name="Trazado 83" d="M796.642,521.071a.9.9,0,0,1-.639-.264l-5.381-5.381a.9.9,0,0,1,1.278-1.278l4.43,4.43a.441.441,0,0,0,.624,0l9.811-9.811a.9.9,0,0,1,1.278,1.278l-10.762,10.762A.9.9,0,0,1,796.642,521.071Z" transform="translate(-789.425 -507.586)" fill="#511aea"/>
    <path id="Trazado_84" data-name="Trazado 84" d="M796.076,521.449a1.825,1.825,0,0,1-1.3-.538l-5.381-5.381a1.84,1.84,0,0,1,0-2.6,1.88,1.88,0,0,1,2.6,0l4.082,4.081,9.464-9.463a1.881,1.881,0,0,1,2.6,0,1.839,1.839,0,0,1,0,2.6L797.375,520.91A1.825,1.825,0,0,1,796.076,521.449Zm-.671-2.541.671.662.645-.645A1.406,1.406,0,0,1,795.4,518.908Zm.324-1.546,0,0Zm.694,0,0,0Z" transform="translate(-788.859 -507.03)" fill="#511aea"/>
  </g>
</svg>
