<svg xmlns="http://www.w3.org/2000/svg" width="38.34" height="38.34" viewBox="0 0 38.34 38.34">
  <g id="Grupo_48" data-name="Grupo 48" transform="translate(0.397)">
    <g id="Grupo_47" data-name="Grupo 47" transform="translate(-0.397 0)">
      <path id="Trazado_91" data-name="Trazado 91" d="M945.742,530.371a18.806,18.806,0,1,1,9.387-35.106.806.806,0,0,1-.806,1.4,17.2,17.2,0,1,0,8.613,14.9,17.389,17.389,0,0,0-.152-2.3,17.091,17.091,0,0,0-.992-3.885,17.338,17.338,0,0,0-1.147-2.4.807.807,0,0,1,.7-1.209.812.812,0,0,1,.7.4,18.728,18.728,0,0,1,2.34,6.875,18.819,18.819,0,0,1-18.64,21.318Z" transform="translate(-926.572 -492.394)" fill="#511aea"/>
      <path id="Trazado_92" data-name="Trazado 92" d="M945.606,530.6a19.17,19.17,0,1,1,9.569-35.783,1.168,1.168,0,0,1,.428,1.6,1.205,1.205,0,0,1-1.6.429,16.885,16.885,0,1,0,6.189,6.188,1.17,1.17,0,0,1,.429-1.6,1.2,1.2,0,0,1,1.6.43,19.062,19.062,0,0,1,2.386,7.008,19.19,19.19,0,0,1-19,21.729Zm0-37.612a18.424,18.424,0,1,0,18.279,15.979,18.33,18.33,0,0,0-2.294-6.742.451.451,0,0,0-.6-.162.44.44,0,0,0-.207.269.435.435,0,0,0,.044.335,17.636,17.636,0,0,1,1.172,2.449,17.436,17.436,0,0,1,1.013,3.968,17.551,17.551,0,1,1-8.639-12.872.454.454,0,0,0,.6-.162.443.443,0,0,0-.161-.6A18.437,18.437,0,0,0,945.606,492.986Z" transform="translate(-926.436 -492.258)" fill="#511aea"/>
    </g>
    <g id="Grupo_34" data-name="Grupo 34" transform="translate(11.603 6)">
      <g id="Trazado_66" data-name="Trazado 66" transform="translate(0 4.099)">
        <path id="Trazado_93" data-name="Trazado 93" d="M950.785,515.947h-1.719a4.362,4.362,0,0,1-4.638-4.3c0-2.645,2.124-5.1,4.638-5.1h6.159c.509,0,.924.663.924,1.174s-.415,1.176-.924,1.176h-6.159a2.743,2.743,0,0,0-2.785,2.7c0,.016,0,.032,0,.047,0,1.647,1.44,1.953,2.785,1.953h1.719c.511,0,.927.662.927,1.174S951.3,515.947,950.785,515.947Z" transform="translate(-944.072 -506.186)" fill="#511aea"/>
        <path id="Trazado_94" data-name="Trazado 94" d="M950.645,516.163h-1.72a4.73,4.73,0,0,1-4.995-4.66c0-2.909,2.333-5.46,4.995-5.46h6.16a1.558,1.558,0,0,1,0,3.066h-6.16a2.438,2.438,0,0,0-1.7.674,2.368,2.368,0,0,0-.723,1.677c0,.784.275,1.637,2.427,1.637h1.72a1.557,1.557,0,0,1,0,3.066Zm-1.72-9.4a4.649,4.649,0,0,0-4.279,4.744,3.986,3.986,0,0,0,4.279,3.943h1.72c.26,0,.568-.443.568-.818s-.308-.816-.568-.816h-1.72c-2.086,0-3.143-.778-3.143-2.311a3.109,3.109,0,0,1,.941-2.232,3.222,3.222,0,0,1,2.207-.876h6.155c.253,0,.565-.451.565-.818s-.312-.816-.565-.816Z" transform="translate(-943.93 -506.044)" fill="#511aea"/>
      </g>
      <g id="Trazado_67" data-name="Trazado 67" transform="translate(0.102 11.156)">
        <path id="Trazado_95" data-name="Trazado 95" d="M952.46,525.8H945.5c-.511,0-.925-.663-.925-1.175s.414-1.175.925-1.175h6.963c1.349,0,2.788-.437,2.788-2.077,0-.047,0-.018.009-.064a1.986,1.986,0,0,0-.472-1.786,2.992,2.992,0,0,0-2.325-.775h-2.523c-.511,0-.924-.665-.924-1.176s.413-1.174.924-1.174h2.523a5.023,5.023,0,0,1,3.724,1.7,4.5,4.5,0,0,1,.913,3.529A4.316,4.316,0,0,1,952.46,525.8Z" transform="translate(-944.214 -516.039)" fill="#511aea"/>
        <path id="Trazado_96" data-name="Trazado 96" d="M952.319,526.016h-6.964a1.557,1.557,0,0,1,0-3.065h6.964c1.109,0,2.43-.3,2.43-1.719l.027-.163a1.637,1.637,0,0,0-.4-1.446,2.643,2.643,0,0,0-2.025-.661l-2.559,0a1.558,1.558,0,0,1,0-3.067h2.523a5.39,5.39,0,0,1,3.992,1.826,4.872,4.872,0,0,1,1,3.825C957.278,524.114,955.176,526.016,952.319,526.016Zm-6.964-2.349c-.254,0-.567.45-.567.817s.313.816.567.816h6.964a3.969,3.969,0,0,0,4.279-3.816,4.2,4.2,0,0,0-.836-3.3,4.667,4.667,0,0,0-3.447-1.569H949.8c-.259,0-.566.443-.566.816s.312.818.566.818h2.523a3.34,3.34,0,0,1,2.567.869,2.351,2.351,0,0,1,.579,2.129h0c-.01,1.54-1.155,2.419-3.146,2.419Z" transform="translate(-944.072 -515.897)" fill="#511aea"/>
      </g>
      <g id="Trazado_68" data-name="Trazado 68" transform="translate(5.262)">
        <path id="Trazado_97" data-name="Trazado 97" d="M952.558,506.52c-.512,0-.781-.412-.781-.926v-3.847c0-.512.269-.926.781-.926s.788.414.788.926v3.847C953.343,506.107,953.068,506.52,952.558,506.52Z" transform="translate(-951.419 -500.463)" fill="#511aea"/>
        <path id="Trazado_98" data-name="Trazado 98" d="M952.417,506.736a1.166,1.166,0,0,1-1.14-1.285v-3.846a1.151,1.151,0,1,1,2.286,0v3.846A1.173,1.173,0,0,1,952.417,506.736Zm0-5.7c-.382,0-.423.4-.423.568v3.846c0,.171.042.569.423.569s.43-.4.43-.571v-3.844C952.847,501.473,952.816,501.037,952.417,501.037Z" transform="translate(-951.277 -500.321)" fill="#511aea"/>
      </g>
      <g id="Trazado_69" data-name="Trazado 69" transform="translate(5.262 18.95)">
        <path id="Trazado_99" data-name="Trazado 99" d="M952.558,532.98c-.512,0-.781-.415-.781-.931v-3.843c0-.511.269-.926.781-.926a.818.818,0,0,1,.788.926v3.848C953.343,532.565,953.068,532.98,952.558,532.98Z" transform="translate(-951.419 -526.922)" fill="#511aea"/>
        <path id="Trazado_100" data-name="Trazado 100" d="M952.417,533.2a1.169,1.169,0,0,1-1.14-1.29v-3.842a1.151,1.151,0,1,1,2.286,0v3.848A1.172,1.172,0,0,1,952.417,533.2Zm0-5.7c-.382,0-.423.4-.423.568v3.842c0,.173.042.574.423.574s.43-.436.43-.57v-3.846C952.847,527.932,952.816,527.5,952.417,527.5Z" transform="translate(-951.277 -526.78)" fill="#511aea"/>
      </g>
    </g>
  </g>
</svg>
